<svg id="Camada_1" data-name="Camada 1" xmlns="http://www.w3.org/2000/svg" xmlns:xlink="http://www.w3.org/1999/xlink" viewBox="0 0 673.39 157.91"><defs><style>.cls-1{fill:#39f;}.cls-2{fill:url(#Gradiente_sem_nome);}.cls-3{fill:url(#Nova_amostra_de_gradiente_1);}.cls-4{opacity:0.82;font-size:61.45px;fill:#00000f;font-family:Gilroy-ExtraBold, Gilroy;font-weight:800;}.cls-5{letter-spacing:-0.02em;}.cls-6{letter-spacing:0em;}.cls-7{letter-spacing:-0.01em;}</style><linearGradient id="Gradiente_sem_nome" x1="238.94" y1="580.47" x2="345.47" y2="724.44" gradientTransform="translate(0 -244)" gradientUnits="userSpaceOnUse"><stop offset="0" stop-color="#39f"/><stop offset="0.42" stop-color="#3197fe"/><stop offset="0.65" stop-color="#298ffc"/><stop offset="0.83" stop-color="#1b82f8"/><stop offset="0.98" stop-color="#086ff3"/><stop offset="1" stop-color="#056cf2"/></linearGradient><linearGradient id="Nova_amostra_de_gradiente_1" x1="430.82" y1="595.07" x2="498.95" y2="739.85" gradientTransform="translate(0 -244)" gradientUnits="userSpaceOnUse"><stop offset="0" stop-color="#39f"/><stop offset="0.42" stop-color="#3197fe"/><stop offset="0.65" stop-color="#298ffc"/><stop offset="0.83" stop-color="#1b82f8"/><stop offset="0.98" stop-color="#086ff3"/><stop offset="1" stop-color="#056cf2"/></linearGradient></defs><title>logo</title><path class="cls-1" d="M779,254.7" transform="translate(-182.76 -338)"/><path class="cls-1" d="M218.84,474.66l13.32,21.24h45.62l-13.33-21.24Z" transform="translate(-182.76 -338)"/><path class="cls-2" d="M261.33,469.68q-16.5-26.25-33-52.54l25.94-34.33,72.93,113.05h33.95L361.81,338H323.26l.57,81.94L271,338H238.24l-55.48,79.15,33,52.49Z" transform="translate(-182.76 -338)"/><path class="cls-3" d="M507.29,419.7c-5,6.59-20.67,26.93-31,32.72a39.84,39.84,0,0,1-19.44,5.17c-22,0-39.84-18.21-39.84-40.64s17.83-40.64,39.84-40.64a39.33,39.33,0,0,1,19.44,5.17c9.91,5.64,25.51,25.84,31,33.15h44.29c-8.11-12.47-35.94-53.82-54.91-65.44A75.94,75.94,0,0,0,456.89,338c-42.78,0-77.44,35.32-77.44,78.95s34.66,78.95,77.44,78.95a75.94,75.94,0,0,0,39.78-11.19c20.87-12.75,50.22-58.09,54.63-65Z" transform="translate(-182.76 -338)"/><text class="cls-4" transform="translate(391.96 74.78)">Na<tspan class="cls-5" x="79.45" y="0">t</tspan><tspan class="cls-6" x="102.06" y="0">anael </tspan><tspan x="0" y="58.96">Oli</tspan><tspan class="cls-5" x="80.37" y="58.96">v</tspan><tspan x="112.33" y="58.96">ei</tspan><tspan class="cls-7" x="163.94" y="58.96">r</tspan><tspan x="185.76" y="58.96">a</tspan></text></svg>