<svg id="Camada_1" data-name="Camada 1" xmlns="http://www.w3.org/2000/svg" xmlns:xlink="http://www.w3.org/1999/xlink" viewBox="0 0 456.87 107.13"><defs><style>.cls-1{fill:#39f;}.cls-2{fill:url(#Gradiente_sem_nome);}.cls-3{fill:url(#Nova_amostra_de_gradiente_1);}.cls-4{opacity:0.82;font-size:41.69px;fill:#00000f;font-family:Gilroy-ExtraBold, Gilroy;font-weight:800;}.cls-5{letter-spacing:-0.02em;}.cls-6{letter-spacing:0em;}.cls-7{letter-spacing:-0.02em;}</style><linearGradient id="Gradiente_sem_nome" x1="329.13" y1="606.35" x2="401.41" y2="704.02" gradientTransform="translate(0 -244)" gradientUnits="userSpaceOnUse"><stop offset="0" stop-color="#39f"/><stop offset="0.42" stop-color="#3197fe"/><stop offset="0.65" stop-color="#298ffc"/><stop offset="0.83" stop-color="#1b82f8"/><stop offset="0.98" stop-color="#086ff3"/><stop offset="1" stop-color="#056cf2"/></linearGradient><linearGradient id="Nova_amostra_de_gradiente_1" x1="459.32" y1="616.25" x2="505.54" y2="714.48" gradientTransform="translate(0 -244)" gradientUnits="userSpaceOnUse"><stop offset="0" stop-color="#39f"/><stop offset="0.42" stop-color="#3197fe"/><stop offset="0.65" stop-color="#298ffc"/><stop offset="0.83" stop-color="#1b82f8"/><stop offset="0.98" stop-color="#086ff3"/><stop offset="1" stop-color="#056cf2"/></linearGradient></defs><title>logo</title><path class="cls-1" d="M779,254.7" transform="translate(-291.02 -363.38)"/><path class="cls-1" d="M315.49,456.1l9,14.42h31l-9-14.42Z" transform="translate(-291.02 -363.38)"/><path class="cls-2" d="M344.32,452.73Q333.13,434.91,322,417.08l17.6-23.29L389,470.48h23l.42-107.1H386.34l.39,55.6-35.84-55.56H328.66L291,417.11l22.39,35.62Z" transform="translate(-291.02 -363.38)"/><path class="cls-3" d="M511.2,418.82c-3.38,4.47-14,18.27-21,22.19A27,27,0,0,1,477,444.52c-14.93,0-27-12.35-27-27.57s12.09-27.57,27-27.57a26.65,26.65,0,0,1,13.19,3.51c6.73,3.82,17.31,17.53,21,22.48h30.05c-5.5-8.46-24.39-36.51-37.25-44.39a51.5,51.5,0,0,0-27-7.6c-29,0-52.53,24-52.53,53.57S448,470.52,477,470.52a51.5,51.5,0,0,0,27-7.6c14.15-8.65,34.07-39.41,37.06-44.1Z" transform="translate(-291.02 -363.38)"/><text class="cls-4" transform="translate(265.93 50.74)">Na<tspan class="cls-5" x="53.91" y="0">t</tspan><tspan class="cls-6" x="69.25" y="0">anael </tspan><tspan x="0" y="40">Oli</tspan><tspan class="cls-5" x="54.53" y="40">v</tspan><tspan class="cls-6" x="76.21" y="40">ei</tspan><tspan class="cls-7" x="111.23" y="40">r</tspan><tspan x="126.03" y="40">a</tspan></text></svg>